# xmcd
#
# Track frame offsets: 
#        150
#        14203
#        26285
#        41121
#        55473
#        70448
#        85420
#        100338
#        115441
#        130082
#        143009
#        157572
#        171014
#        186516
#        198741
#        211495
#
# Disc length: 2997 seconds
#
# Revision: 3
# Processed by: cddbd v1.5.2PL0 Copyright (c) Steve Scherf et al.
# Submitted via: ExactAudioCopy v0.99pb4
#
DISCID=ed0bb310
DTITLE=Ma Rainey - Ma Rainy - Blues Archive CD 1
DYEAR=2005
DGENRE=Blues
TTITLE0=Farewell, Daddy Blues
TTITLE1=Shave 'Em Dry Blues
TTITLE2=Booze And Blues
TTITLE3=Toad Frog Blues
TTITLE4=Jealous Hearted Blues
TTITLE5=See See Rider Blues
TTITLE6=Jelly Bean Blues
TTITLE7=Coutin' The blues
TTITLE8=Cell Bound Blues
TTITLE9=Army Camp Harmony Blues
TTITLE10=Explaning The Blues
TTITLE11=Lousiana Hoo Doo Blues
TTITLE12=Goosby Daddy Blues
TTITLE13=Stormy Sea Blues
TTITLE14=Rough And Tumble Blues
TTITLE15=Night Time Blues
EXTD=YEAR: 2005
EXTT0=
EXTT1=
EXTT2=
EXTT3=
EXTT4=
EXTT5=
EXTT6=
EXTT7=
EXTT8=
EXTT9=
EXTT10=
EXTT11=
EXTT12=
EXTT13=
EXTT14=
EXTT15=
PLAYORDER=
